<svg width="32" height="32" viewBox="0 0 32 32" fill="none" xmlns="http://www.w3.org/2000/svg">
<path fill-rule="evenodd" clip-rule="evenodd" d="M7.9925 6.59428C9.97812 5.10579 11.4042 4.03866 12.6232 3.33452C13.819 2.64377 14.7384 2.34985 15.696 2.34985C16.6537 2.34985 17.573 2.64377 18.7688 3.33452C19.9879 4.03866 21.4139 5.10579 23.3995 6.59428L25.512 8.17785C26.6125 9.00286 27.3944 9.58982 27.9772 10.1056C28.5496 10.6122 28.8796 11.0076 29.0991 11.4249C29.5504 12.2831 29.5744 13.2675 29.5744 15.8671V23.7012C29.5744 25.4723 29.5719 26.6964 29.4303 27.6176C29.2948 28.4989 29.0495 28.9734 28.6475 29.325C28.228 29.6919 27.6331 29.9276 26.5631 30.0535C25.4781 30.181 24.0476 30.1825 22.0334 30.1825H21.1054V21.1839C21.1054 20.0128 20.1561 19.0635 18.985 19.0635H11.1216C9.95055 19.0635 9.00121 20.0128 9.00121 21.1839V30.1825C7.1735 30.1819 5.84861 30.1734 4.82891 30.0535C3.75893 29.9276 3.16403 29.6919 2.74454 29.325C2.34259 28.9734 2.0972 28.4989 1.96172 27.6176C1.8201 26.6964 1.8176 25.4723 1.8176 23.7012V15.8671C1.8176 13.2675 1.8416 12.2831 2.29294 11.4249C2.51243 11.0076 2.84244 10.6122 3.41483 10.1056C3.99768 9.58982 4.77951 9.00286 5.88005 8.17785L7.9925 6.59428ZM10.8187 30.1825H19.2879V21.1839C19.2879 21.0166 19.1523 20.881 18.985 20.881H11.1216C10.9543 20.881 10.8187 21.0166 10.8187 21.1839V30.1825ZM15.696 0.532349C14.3093 0.532349 13.0725 0.976097 11.7141 1.76071C10.3898 2.52565 8.87767 3.65923 6.94977 5.10448L6.94975 5.10449L6.90234 5.14003L4.78989 6.7236L4.75866 6.74701L4.75864 6.74703C3.69624 7.54343 2.85498 8.17407 2.21034 8.74455C1.54893 9.32987 1.04462 9.89384 0.684324 10.579C-0.00116458 11.8824 -0.000690063 13.3521 4.75447e-05 15.6369L9.68378e-05 15.8671V23.7012V23.7759C5.98829e-05 25.4542 3.06766e-05 26.8185 0.165329 27.8938C0.339217 29.0249 0.712554 29.9624 1.54804 30.6931C2.366 31.4084 3.38564 31.7138 4.61666 31.8585C5.82026 32 7.35787 32 9.2986 32H9.35866H22.0334H22.0934C24.0342 32 25.5718 32 26.7754 31.8585C28.0064 31.7138 29.026 31.4084 29.844 30.6931C30.6795 29.9624 31.0528 29.0249 31.2267 27.8938C31.392 26.8185 31.392 25.4543 31.3919 23.7759V23.7759V23.7012V15.8671L31.392 15.6369V15.6369C31.3927 13.3521 31.3932 11.8824 30.7077 10.579C30.3474 9.89384 29.8431 9.32987 29.1817 8.74455C28.5371 8.17407 27.6958 7.54342 26.6334 6.74701L26.6022 6.7236L24.4897 5.14003L24.4422 5.10445C22.5144 3.65922 21.0022 2.52565 19.6779 1.7607C18.3196 0.976097 17.0827 0.532349 15.696 0.532349Z" fill="url(#paint0_diamond_113_2079)"/>
<defs>
<radialGradient id="paint0_diamond_113_2079" cx="0" cy="0" r="1" gradientUnits="userSpaceOnUse" gradientTransform="translate(15.696 16.2662) rotate(90) scale(27.5342 27.468)">
<stop stop-color="#00FFFF"/>
<stop offset="1" stop-color="#BD00FF"/>
</radialGradient>
</defs>
</svg>
